
<svg width="1440" height="800" xmlns="http://www.w3.org/2000/svg">
  <defs>
    <linearGradient id="grid-gradient" x1="0%" y1="0%" x2="100%" y2="100%">
      <stop offset="0%" stop-color="#00CCAA" stop-opacity="0.1"/>
      <stop offset="100%" stop-color="#00AA99" stop-opacity="0.2"/>
    </linearGradient>
  </defs>
  <path d="M0,50 Q200,150 400,50 T800,50 T1200,50 T1600,50 T2000,50 V800 H0 Z" fill="url(#grid-gradient)"/>
  <g stroke="#00AA99" stroke-opacity="0.15">
    <!-- Horizontal lines -->
    <line x1="0" y1="50" x2="1440" y2="50" />
    <line x1="0" y1="150" x2="1440" y2="150" />
    <line x1="0" y1="250" x2="1440" y2="250" />
    <line x1="0" y1="350" x2="1440" y2="350" />
    <line x1="0" y1="450" x2="1440" y2="450" />
    <line x1="0" y1="550" x2="1440" y2="550" />
    <line x1="0" y1="650" x2="1440" y2="650" />
    <line x1="0" y1="750" x2="1440" y2="750" />
    
    <!-- Vertical lines -->
    <line x1="100" y1="0" x2="100" y2="800" />
    <line x1="300" y1="0" x2="300" y2="800" />
    <line x1="500" y1="0" x2="500" y2="800" />
    <line x1="700" y1="0" x2="700" y2="800" />
    <line x1="900" y1="0" x2="900" y2="800" />
    <line x1="1100" y1="0" x2="1100" y2="800" />
    <line x1="1300" y1="0" x2="1300" y2="800" />
  </g>
</svg>
